<svg xmlns="http://www.w3.org/2000/svg" viewBox="0 0 290.86 68"><path fill="#e88024" d="M248.75 0h18v18h-18zm0 25h18v18h-18zm0 25h18v18h-18z"/><path fill="none" stroke="#4470b7" stroke-miterlimit="10" stroke-width="5" d="M281.75 61V18.89"/><path fill="#4470b7" d="M272.64 20.11h18.22L281.75 11l-9.11 9.11z"/><path fill="#e88024" d="M188.75 0h18v18h-18zm0 25h18v18h-18zm0 25h18v18h-18z"/><path fill="none" stroke="#4470b7" stroke-miterlimit="10" stroke-width="5" d="M221.75 11v42.11"/><path fill="#4470b7" d="M230.86 51.89h-18.22l9.11 9.11 9.11-9.11z"/><path fill="#e88024" d="M50 36.25h18v18H50zm-25 0h18v18H25zm-25 0h18v18H0z"/><path fill="none" stroke="#4470b7" stroke-miterlimit="10" stroke-width="5" d="M9 22.25h42.11"/><path fill="#4470b7" d="M49.89 13.14v18.22L59 22.25l-9.11-9.11z"/><path fill="#e88024" d="M144 36.25h18v18h-18zm-25 0h18v18h-18zm-25 0h18v18H94z"/><path fill="none" stroke="#4470b7" stroke-miterlimit="10" stroke-width="5" d="M153 22.25h-42.11"/><path fill="#4470b7" d="M112.11 31.36V13.14L103 22.25l9.11 9.11z"/></svg>