<svg xmlns="http://www.w3.org/2000/svg" viewBox="0 0 319 454"><title>Artboard 1</title><path fill="#89479b" d="M0 24h319v45H0z"/><path fill="#e88024" d="M0 35.5h52.9v22H0zm63.1 0H90v22H63.1zm37.7 0H197v22h-96.2z"/><path fill="#89479b" d="M0 98h319v45H0z"/><path fill="#e88024" d="M122 109.5h52.9v22H122zm63.1 0H212v22h-26.9zm37.7 0H319v22h-96.2z"/><text transform="translate(8 21)" font-size="16" fill="#89479b" font-family="OperatorMono-Bold, Operator Mono" font-weight="700" style="isolation:isolate">flex-start</text><text transform="translate(8 95)" font-size="16" fill="#89479b" font-family="OperatorMono-Bold, Operator Mono" font-weight="700" style="isolation:isolate">flex-end</text><path fill="#89479b" d="M0 173h319v45H0z"/><path fill="#e88024" d="M59.4 184.5h52.9v22H59.4zm63.1 0h26.9v22h-26.9zm37.7 0h96.2v22h-96.2z"/><text transform="translate(8 170)" font-size="16" fill="#89479b" font-family="OperatorMono-Bold, Operator Mono" font-weight="700" style="isolation:isolate">center</text><path fill="#89479b" d="M.7 248h319v45H.7z"/><path fill="#e88024" d="M0 259.5h52.9v22H0zm127.2 0h26.9v22h-26.9zm95.6 0H319v22h-96.2z"/><text transform="translate(8.68 245)" font-size="16" fill="#89479b" font-family="OperatorMono-Bold, Operator Mono" font-weight="700" style="isolation:isolate">space-between</text><path fill="#89479b" d="M1 324h319v45H1z"/><path fill="#e88024" d="M23 335.5h52.9v22H23zm100.5 0h26.9v22h-26.9zm77.6 0h96.2v22h-96.2z"/><text transform="translate(9.03 321)" font-size="16" fill="#89479b" font-family="OperatorMono-Bold, Operator Mono" font-weight="700" style="isolation:isolate">space-around</text><path fill="#89479b" d="M1 398h319v45H1z"/><path fill="#e88024" d="M32.95 409.5h52.9v22h-52.9z"/><text transform="translate(9.03 395)" font-size="16" fill="#89479b" font-family="OperatorMono-Bold, Operator Mono" font-weight="700" style="isolation:isolate">space-evenly</text><path fill="#e88024" d="M123.5 409.5h26.9v22h-26.9zm61.6 0h96.2v22h-96.2z"/></svg>